<mxfile host="app.diagrams.net" agent="Mozilla/5.0 (Macintosh; Intel Mac OS X 10_15_7) AppleWebKit/537.36 (KHTML, like Gecko) Chrome/131.0.0.0 Safari/537.36" version="26.0.6">
  <diagram name="第 1 页" id="LvjFGIDxFa3_T1Y5Gw0-">
    <mxGraphModel dx="954" dy="581" grid="1" gridSize="10" guides="1" tooltips="1" connect="1" arrows="1" fold="1" page="1" pageScale="1" pageWidth="827" pageHeight="1169" math="0" shadow="0">
      <root>
        <mxCell id="0" />
        <mxCell id="1" parent="0" />
        <mxCell id="sS4oUDZ3pTjtGtMIdjDM-1" style="edgeStyle=orthogonalEdgeStyle;rounded=0;orthogonalLoop=1;jettySize=auto;html=1;entryX=0;entryY=0.5;entryDx=0;entryDy=0;strokeColor=default;curved=1;" edge="1" parent="1" source="sS4oUDZ3pTjtGtMIdjDM-5" target="sS4oUDZ3pTjtGtMIdjDM-6">
          <mxGeometry relative="1" as="geometry" />
        </mxCell>
        <mxCell id="sS4oUDZ3pTjtGtMIdjDM-2" value="写" style="edgeLabel;html=1;align=center;verticalAlign=middle;resizable=0;points=[];" vertex="1" connectable="0" parent="sS4oUDZ3pTjtGtMIdjDM-1">
          <mxGeometry x="-0.0952" y="3" relative="1" as="geometry">
            <mxPoint as="offset" />
          </mxGeometry>
        </mxCell>
        <mxCell id="sS4oUDZ3pTjtGtMIdjDM-3" style="edgeStyle=orthogonalEdgeStyle;rounded=0;orthogonalLoop=1;jettySize=auto;html=1;entryX=0;entryY=0.5;entryDx=0;entryDy=0;" edge="1" parent="1" source="sS4oUDZ3pTjtGtMIdjDM-5" target="sS4oUDZ3pTjtGtMIdjDM-13">
          <mxGeometry relative="1" as="geometry" />
        </mxCell>
        <mxCell id="sS4oUDZ3pTjtGtMIdjDM-4" value="同步删除缓存" style="edgeLabel;html=1;align=center;verticalAlign=middle;resizable=0;points=[];" vertex="1" connectable="0" parent="sS4oUDZ3pTjtGtMIdjDM-3">
          <mxGeometry x="-0.0058" y="-1" relative="1" as="geometry">
            <mxPoint x="9" y="-1" as="offset" />
          </mxGeometry>
        </mxCell>
        <mxCell id="sS4oUDZ3pTjtGtMIdjDM-5" value="App" style="ellipse;shape=cloud;whiteSpace=wrap;html=1;" vertex="1" parent="1">
          <mxGeometry x="43" y="240" width="120" height="80" as="geometry" />
        </mxCell>
        <mxCell id="sS4oUDZ3pTjtGtMIdjDM-6" value="MySQL" style="rounded=1;whiteSpace=wrap;html=1;" vertex="1" parent="1">
          <mxGeometry x="365" y="150" width="120" height="60" as="geometry" />
        </mxCell>
        <mxCell id="sS4oUDZ3pTjtGtMIdjDM-13" value="Redis" style="rounded=1;whiteSpace=wrap;html=1;" vertex="1" parent="1">
          <mxGeometry x="365" y="250" width="120" height="60" as="geometry" />
        </mxCell>
        <mxCell id="sS4oUDZ3pTjtGtMIdjDM-19" value="结束" style="rounded=1;whiteSpace=wrap;html=1;" vertex="1" parent="1">
          <mxGeometry x="637" y="250" width="120" height="60" as="geometry" />
        </mxCell>
        <mxCell id="sS4oUDZ3pTjtGtMIdjDM-20" value="&lt;font style=&quot;color: rgb(0, 76, 153);&quot;&gt;写入时，加分布式锁&lt;/font&gt;" style="rounded=1;whiteSpace=wrap;html=1;fillStyle=hatch;strokeColor=#004C99;shadow=1;fillColor=#dae8fc;" vertex="1" parent="1">
          <mxGeometry x="340" y="130" width="170" height="200" as="geometry" />
        </mxCell>
      </root>
    </mxGraphModel>
  </diagram>
</mxfile>
